# xmcd
#
# Track frame offsets:
#	150
#	16248
#	30029
#	41706
#	59533
#	75471
#	88610
#	103714
#	116491
#	133819
#	146696
#	166089
#	182765
#	198605
#	213038
#
# Disc length: 3122 seconds
#
# Revision: 1
# Processed by: cddbd v1.5.2PL0 Copyright (c) Steve Scherf et al.
# Submitted via: audiograbber 1.83.01
#
DISCID=c20c300f
DTITLE=Various Artist - Lifetime Of Country Romance - Forever And Ever
DYEAR=2006
DGENRE=Country
TTITLE0=Randy Travis - Forever And Ever
TTITLE1=John Anderson - Swingin'
TTITLE2=Emmylou Harris - If I Could Only Win Your Love
TTITLE3=Linda Ronstadt - Blue Bayou
TTITLE4=Nitty Gritty Dirt Band - Modern Day Romance
TTITLE5=Conway Twitty - Slow Hand
TTITLE6=Dwight Yoakam - Little Ways
TTITLE7=Michael Martin Murphey - What's Forever For
TTITLE8=Dolly Rarton, Linda Ronstadt, Emmylou Harris - To Know Him Is To Love H
TTITLE8=im
TTITLE9=T. G. Sheppard - I'll Be Coming Back For More
TTITLE10=Crystral Gayle - Cry
TTITLE11=Lee Greenwood - Somebody's Gonna Love You
TTITLE12=Johnny Lee - Lookin' For Love
TTITLE13=Eddie Rabbitt - The Best Year Of My Life
TTITLE14=Gary Morris - The Wind Beneath My Wings
EXTD=
EXTT0=
EXTT1=
EXTT2=
EXTT3=
EXTT4=
EXTT5=
EXTT6=
EXTT7=
EXTT8=
EXTT9=
EXTT10=
EXTT11=
EXTT12=
EXTT13=
EXTT14=
PLAYORDER=
